<?xml version="1.0" encoding="UTF-8" standalone="no"?>
<!DOCTYPE svg PUBLIC "-//W3C//DTD SVG 1.1//EN" "http://www.w3.org/Graphics/SVG/1.1/DTD/svg11.dtd">
<svg width="100%" height="100%" viewBox="0 0 1080 1080" version="1.1" xmlns="http://www.w3.org/2000/svg" xmlns:xlink="http://www.w3.org/1999/xlink" xml:space="preserve" xmlns:serif="http://www.serif.com/" style="fill-rule:evenodd;clip-rule:evenodd;stroke-linejoin:round;stroke-miterlimit:2;">
    <g transform="matrix(3.10154,0,0,3.10154,-418.071,106.647)">
        <g transform="matrix(1,0,0,1,150.916,0)">
            <path d="M52.038,48.207C58.388,48.207 63.567,53.385 63.567,59.734C63.567,66.085 58.387,71.261 52.038,71.261C45.689,71.261 40.51,66.084 40.51,59.734C40.51,53.385 45.689,48.207 52.038,48.207M67.773,56.159C67.575,65.464 64.461,82.791 57.42,80.804C49.505,78.569 37.129,72.219 32.828,59.457C32.828,59.457 32.574,58.702 32.935,57.993C40.028,44.074 55.25,39.853 61.86,40.597C65.91,41.054 67.957,47.573 67.773,56.159M119.463,51.086L78.365,34.199C78.365,34.199 77.629,33.898 77.669,33.103L78.482,17.125C78.482,17.125 78.523,16.333 79.318,16.333L104.992,16.333C104.992,16.333 105.787,16.333 105.064,16.001L72.285,1.037C72.285,1.037 71.561,0.705 70.912,1.164L50.119,15.873C50.119,15.873 49.47,16.334 50.265,16.334L64.648,16.334C64.648,16.334 65.442,16.334 65.518,17.125L66.621,28.655C66.621,28.655 66.696,29.447 65.964,29.139L45.733,20.688C45.733,20.688 44.999,20.382 44.641,21.093L20.381,69.31C20.381,69.31 20.024,70.022 20.721,70.408L73.291,99.448C73.291,99.448 73.987,99.834 74.031,99.041C74.031,99.041 73.987,99.834 76.922,46.616C76.922,46.616 76.967,45.824 77.688,46.16C88.19,51.06 90.768,61.881 91.17,68.48C91.797,78.763 85.58,101.871 71.198,107.047C71.198,107.047 70.449,107.314 69.661,107.208C38.558,103.062 10.092,84.793 13.734,64.309C18.082,39.859 31.252,6.019 31.252,6.019C31.252,6.019 31.541,5.278 30.745,5.278L0.796,5.278C0.796,5.278 0,5.278 0,6.073L0,85.608C0,85.608 0,86.405 0.655,86.853C16.564,97.763 39.201,111.542 54.319,119.587C54.319,119.587 55.021,119.961 55.81,119.858C98.83,114.192 117.215,61.087 119.963,52.146C119.964,52.147 120.198,51.389 119.463,51.086" style="fill:#00adbb;fill-rule:nonzero;"/>
            <g transform="matrix(1.13743,0,0,1.13526,-37.8861,-16.3547)">
                <path d="M287.888,96.09C264.224,96.09 251.378,79.638 251.378,55.183C251.378,32.871 262.984,15.742 287.551,15.742C294.989,15.742 302.763,17.546 309.525,21.038L302.088,35.802C298.595,33.548 293.185,32.083 288.114,32.083C274.027,32.083 270.197,41.662 270.197,55.184C270.197,76.482 278.309,80.54 288.339,80.54C290.255,80.54 292.058,80.54 293.974,80.201C293.974,79.186 293.974,73.89 294.2,62.846C287.664,62.958 286.424,62.958 285.297,62.958C285.297,62.623 285.072,48.759 285.072,48.536L311.103,48.536L311.103,91.246C305.468,94.849 295.776,96.09 287.888,96.09M226.306,120C238.363,112.45 242.984,106.813 242.984,91.826L242.984,44.793L241.857,43.667L224.165,43.779C224.279,46.033 224.503,50.47 224.503,53.624L224.503,93.853C224.503,102.87 223.376,104.56 217.629,108.618L217.629,110.194L226.306,120ZM155,17.695L173.367,17.695C173.367,18.933 173.367,34.823 173.029,51.951L173.593,51.951C174.946,48.795 176.861,45.416 178.325,43.389L196.693,17.696L217.879,17.696L192.186,51.275C199.287,63.785 209.428,80.463 217.879,95.001L196.693,95.001C192.75,86.886 184.184,72.237 179.564,63.108C177.424,65.7 175.169,68.068 173.028,70.658C173.255,83.168 173.366,93.987 173.366,95.001L155,95.001L155,17.695ZM233.694,37.475C239.195,37.475 243.657,33.015 243.657,27.512C243.657,22.01 239.195,17.551 233.694,17.551C228.191,17.551 223.73,22.01 223.73,27.512C223.73,33.015 228.191,37.475 233.694,37.475" style="fill:#00adbb;fill-rule:nonzero;"/>
            </g>
        </g>
        <g transform="matrix(1.13686,0,0,1.13686,-229.932,106.311)">
            <g>
                <path d="M604.291,78.909C602.273,78.909 601.123,80.473 600.998,83.723C601.451,83.723 607.172,83.598 607.379,83.598C607.379,80.51 606.471,78.909 604.291,78.909M604.578,95.536C597.871,95.536 595.154,90.884 595.154,85.083C595.154,79.361 597.664,74.876 604.291,74.876C610.672,74.876 612.934,78.989 612.934,84.342C612.934,84.958 612.77,86.068 612.524,86.73C610.96,86.73 601.37,86.645 600.958,86.645C600.999,88.828 601.946,91.707 605.239,91.707C606.927,91.707 608.327,90.843 609.561,89.527L611.907,92.161L611.907,92.653C609.932,94.384 607.625,95.536 604.578,95.536M585.895,80.8C584.989,79.772 583.754,79.155 582.645,79.155C579.885,79.155 579.555,82.858 579.555,85.083C579.555,87.512 579.68,91.584 582.272,91.584C583.424,91.584 584.866,90.638 585.813,89.442C585.812,89.032 585.895,81.253 585.895,80.8M587.17,95L586.76,94.59L586.223,93.026L586.061,92.985C584.536,94.259 582.807,95.493 580.502,95.493C574.863,95.493 573.506,90.351 573.506,85.084C573.506,79.938 575.606,74.877 580.627,74.877C582.848,74.877 584.619,75.861 585.813,76.975L585.895,76.934C585.852,75.329 585.813,71.212 585.813,70.799C585.813,69.235 585.729,66.891 585.649,66.065L591.247,65.904L591.659,66.314L591.659,90.267C591.659,91.872 591.739,94.178 591.782,95.001L587.17,95.001L587.17,95ZM563.711,95C563.711,94.63 563.875,82.405 563.875,82.034C563.875,79.936 563.381,79.194 561.982,79.194C560.953,79.194 559.47,79.853 558.359,80.594L558.4,95L552.556,95L552.556,80.474C552.556,79.031 552.474,76.273 552.431,75.41L557.288,75.287L557.741,75.699L558.028,77.304L558.112,77.343C559.964,75.986 562.639,74.915 564.821,74.915C567.579,74.915 569.676,76.561 569.676,80.759C569.676,81.172 569.553,94.59 569.553,95L563.711,95ZM542.062,72.198L542.062,66.848L542.474,66.438L547.906,66.438L547.906,72.198L542.062,72.198ZM542.062,95L542.062,80.144C542.062,78.949 541.978,76.232 541.937,75.41L547.494,75.328L547.906,75.74L547.906,95L542.062,95ZM529.674,78.909C527.656,78.909 526.504,80.473 526.381,83.723C526.834,83.723 532.555,83.598 532.76,83.598C532.76,80.51 531.855,78.909 529.674,78.909M529.961,95.536C523.253,95.536 520.537,90.884 520.537,85.083C520.537,79.361 523.049,74.876 529.674,74.876C536.053,74.876 538.319,78.989 538.319,84.342C538.319,84.958 538.153,86.068 537.907,86.73C536.343,86.73 526.753,86.645 526.341,86.645C526.382,88.828 527.329,91.707 530.622,91.707C532.31,91.707 533.708,90.843 534.942,89.527L537.288,92.161L537.288,92.653C535.312,94.384 533.008,95.536 529.961,95.536M510.947,95C510.947,94.63 511.113,82.405 511.113,82.034C511.113,79.976 510.578,79.194 509.301,79.194C508.355,79.194 507.037,79.73 506.008,80.553L506.008,95L500.328,95C500.328,94.63 500.41,82.405 500.41,82.034C500.41,79.976 499.917,79.194 498.722,79.194C497.735,79.194 496.377,79.771 495.349,80.594L495.39,95L489.545,95L489.545,80.474C489.545,79.075 489.463,76.273 489.422,75.41L494.277,75.287L494.73,75.699L495.019,77.304L495.101,77.343C496.871,75.905 499.34,74.915 501.439,74.915C503.086,74.915 504.65,75.655 505.431,77.425C507.449,75.861 510.041,74.915 512.14,74.915C514.816,74.915 516.914,76.561 516.914,80.759C516.914,81.172 516.791,94.59 516.791,95L510.947,95ZM477.404,78.909C475.387,78.909 474.234,80.473 474.111,83.723C474.564,83.723 480.286,83.598 480.492,83.598C480.492,80.51 479.586,78.909 477.404,78.909M477.692,95.536C470.983,95.536 468.267,90.884 468.267,85.083C468.267,79.361 470.778,74.876 477.404,74.876C483.785,74.876 486.047,78.989 486.047,84.342C486.047,84.958 485.884,86.068 485.636,86.73C484.073,86.73 474.481,86.645 474.071,86.645C474.112,88.828 475.057,91.707 478.352,91.707C480.039,91.707 481.438,90.843 482.672,89.527L485.019,92.161L485.019,92.653C483.043,94.384 480.738,95.536 477.692,95.536M456.125,95.372C447.359,95.372 442.667,89.403 442.667,80.51C442.667,72.404 446.864,66.108 455.713,66.108C458.43,66.108 461.188,66.765 463.658,68.042L461.31,72.735C459.913,71.871 457.73,71.335 455.754,71.335C450.321,71.335 448.676,75.244 448.676,80.511C448.676,88.046 451.639,90.473 456.288,90.473C457.153,90.473 457.977,90.432 458.759,90.227C458.759,89.857 458.759,87.346 458.841,82.902C456.165,82.94 455.631,82.94 455.22,82.94C455.22,82.86 455.178,78.333 455.178,78.294L464.275,78.294L464.275,93.769C462.3,94.959 458.967,95.372 456.125,95.372M421.842,78.909C419.826,78.909 418.672,80.473 418.549,83.723C419.003,83.723 424.724,83.598 424.928,83.598C424.928,80.51 424.024,78.909 421.842,78.909M422.131,95.536C415.422,95.536 412.705,90.884 412.705,85.083C412.705,79.361 415.216,74.876 421.842,74.876C428.221,74.876 430.485,78.989 430.485,84.342C430.485,84.958 430.322,86.068 430.073,86.73C428.511,86.73 418.92,86.645 418.509,86.645C418.55,88.828 419.497,91.707 422.79,91.707C424.476,91.707 425.877,90.843 427.11,89.527L429.458,92.161L429.458,92.653C427.48,94.384 425.176,95.536 422.131,95.536M403.362,80.8C402.457,79.772 401.222,79.155 400.11,79.155C397.353,79.155 397.023,82.858 397.023,85.083C397.023,87.512 397.148,91.584 399.74,91.584C400.892,91.584 402.333,90.638 403.279,89.442C403.279,89.032 403.362,81.253 403.362,80.8M409.124,79.155L409.124,95.823C409.124,101.503 404.844,103.889 400.154,103.889C397.517,103.889 394.677,103.191 392.455,101.872L393.936,98.21L394.431,98.21C395.912,99.197 397.764,99.856 399.533,99.856C401.962,99.856 403.32,98.621 403.32,96.48C403.32,96.15 403.445,94.257 403.528,93.106L403.362,93.024C401.962,94.298 400.275,95.491 397.971,95.491C392.331,95.491 390.974,90.349 390.974,85.082C390.974,79.936 393.072,74.875 398.093,74.875C400.316,74.875 402.086,75.859 403.566,77.219L403.691,77.137L404.103,75.698L404.554,75.286L409.247,75.409C409.207,75.819 409.124,77.92 409.124,79.155M381.179,95C381.179,94.63 381.344,82.405 381.344,82.034C381.344,79.936 380.85,79.194 379.45,79.194C378.421,79.194 376.939,79.853 375.827,80.594L375.869,95L370.023,95L370.023,80.474C370.023,79.031 369.943,76.273 369.902,75.41L374.757,75.287L375.209,75.699L375.499,77.304L375.58,77.343C377.433,75.986 380.107,74.915 382.289,74.915C385.046,74.915 387.145,76.561 387.145,80.759C387.145,81.172 387.022,94.59 387.022,95L381.179,95ZM361.013,95L360.601,94.59L360.106,92.944L359.942,92.9C357.759,94.96 355.497,95.537 353.234,95.537C350.229,95.537 348.047,93.889 348.047,89.691C348.047,89.279 348.17,75.82 348.17,75.41L353.603,75.41L354.016,75.82C354.016,76.273 353.891,88.088 353.891,88.621C353.891,90.105 354.383,91.504 355.868,91.504C357.102,91.504 358.748,90.682 359.736,89.65L359.655,75.41L365.087,75.41L365.499,75.82L365.499,90.266C365.499,91.871 365.58,94.177 365.623,95L361.013,95ZM337.758,72.198L337.758,66.848L338.17,66.438L343.602,66.438L343.602,72.198L337.758,72.198ZM335,100.97L335,100.394C337.305,98.789 337.758,98.129 337.758,94.836L337.758,80.144C337.758,78.99 337.675,76.232 337.634,75.41L343.191,75.328L343.602,75.74L343.602,94.26C343.602,99.487 342.038,101.464 337.717,104.098L335,100.97ZM527.834,43.603C527.627,43.603 521.908,43.726 521.455,43.726C521.578,40.475 522.729,38.911 524.748,38.911C526.93,38.91 527.834,40.516 527.834,43.603M532.361,52.656L532.361,52.162L530.015,49.528C528.781,50.845 527.38,51.709 525.693,51.709C522.4,51.709 521.455,48.829 521.413,46.647C521.824,46.647 531.414,46.73 532.976,46.73C533.226,46.072 533.388,44.96 533.388,44.341C533.388,38.991 531.126,34.876 524.747,34.876C518.12,34.876 515.61,39.362 515.61,45.083C515.61,50.886 518.326,55.537 525.034,55.537C528.08,55.538 530.385,54.386 532.361,52.656M511.865,55.002C511.865,54.59 511.989,41.175 511.989,40.763C511.989,36.564 509.888,34.919 507.132,34.919C504.95,34.919 502.523,35.905 500.671,37.224C500.671,36.811 500.711,31.419 500.711,31.05L500.711,26.317L500.299,25.906L494.742,26.069C494.826,26.932 494.865,29.403 494.865,31.05L494.865,55.002L500.711,55.002L500.671,40.598C501.781,39.857 503.264,39.199 504.293,39.199C505.691,39.199 506.185,39.94 506.185,42.038C506.185,42.409 506.02,54.634 506.02,55.003L511.865,55.003L511.865,55.002ZM491.904,53.068L491.904,52.574L489.97,49.652C488.981,50.72 487.665,51.669 486.141,51.669C483.507,51.669 482.56,48.912 482.56,45.084C482.56,41.544 483.713,38.992 486.511,38.992C487.746,38.992 489.023,39.486 490.174,40.309L491.82,37.058L491.82,36.563C490.381,35.576 488.115,34.876 485.811,34.876C479.391,34.876 476.426,39.114 476.426,45.042C476.426,51.216 478.938,55.537 485.237,55.537C488.2,55.538 490.094,54.633 491.904,53.068M458.484,52.615L458.484,53.11C460.665,54.756 462.97,55.538 465.851,55.538C470.378,55.538 473.794,53.644 473.794,49.281C473.794,45.949 471.901,44.631 468.773,43.437C466.51,42.572 464.699,42.244 464.699,40.678C464.699,39.486 465.645,38.868 467.169,38.868C468.898,38.868 470.462,39.443 471.614,40.308L473.26,37.057L473.26,36.562C471.489,35.41 469.021,34.875 466.716,34.875C462.476,34.875 459.06,36.686 459.06,40.924C459.06,44.177 461.201,45.535 463.752,46.646C466.016,47.633 468.032,47.922 468.032,49.651C468.032,51.215 466.551,51.792 465.234,51.792C463.423,51.792 461.529,50.72 460.213,49.527L458.484,52.615ZM455.149,32.202L455.149,26.439L449.716,26.439L449.304,26.85L449.304,32.202L455.149,32.202ZM455.149,55.002L455.149,35.741L454.738,35.33L449.181,35.411C449.223,36.234 449.304,38.95 449.304,40.144L449.304,55.001L455.149,55.001L455.149,55.002ZM444.368,26.316L443.957,25.905L438.399,26.068C438.482,26.892 438.523,29.236 438.523,30.8L438.523,50.27C438.523,51.833 438.605,54.179 438.686,55.001L444.532,55.001C444.449,54.179 444.368,51.833 444.368,50.27L444.368,26.316ZM425.559,51.957C423.13,51.957 422.102,49.488 422.102,45.207C422.102,41.957 422.637,38.91 425.559,38.91C428.44,38.91 429.017,41.957 429.017,45.207C429.017,49.488 427.945,51.957 425.559,51.957M425.559,55.538C432.802,55.538 435.067,49.775 435.067,45.125C435.067,39.363 432.267,34.877 425.559,34.877C418.767,34.877 416.051,39.363 416.051,45.125C416.051,49.775 418.19,55.538 425.559,55.538M412.349,55.002C412.349,54.59 412.471,41.175 412.471,40.763C412.471,36.564 410.372,34.919 407.615,34.919C405.434,34.919 403.006,35.905 401.154,37.224C401.154,36.811 401.194,31.419 401.194,31.05L401.194,26.317L400.783,25.906L395.226,26.069C395.309,26.932 395.349,29.403 395.349,31.05L395.349,55.002L401.194,55.002L401.154,40.598C402.264,39.857 403.747,39.199 404.774,39.199C406.174,39.199 406.668,39.94 406.668,42.038C406.668,42.409 406.503,54.634 406.503,55.003L412.349,55.003L412.349,55.002ZM391.357,55.002L391.769,54.59L391.684,50.928L390.079,50.928C388.271,50.928 388.228,50.517 388.228,48.459C388.228,48.089 388.228,43.272 388.187,39.527C389.628,39.567 391.48,39.567 391.892,39.567L391.974,35.411C391.563,35.411 389.628,35.411 388.187,35.453C388.271,32.325 388.271,29.855 388.271,29.484L382.835,29.484L382.425,29.896C382.425,30.267 382.466,33.189 382.507,35.453C381.23,35.411 380.449,35.411 380.038,35.411L379.996,39.567C380.407,39.567 381.229,39.567 382.507,39.527C382.425,43.395 382.425,48.746 382.425,49.158C382.425,52.039 382.794,55.002 387.941,55.002L391.357,55.002ZM371.354,45.619C371.354,45.865 371.273,49.528 371.273,49.775C370.039,51.05 368.68,51.586 367.692,51.586C366.13,51.586 365.756,50.229 365.756,48.789C365.756,45.7 367.445,45.66 371.314,45.577L371.354,45.619ZM377.197,55.002C377.158,54.18 377.076,51.875 377.076,50.271L377.076,40.967C377.076,36.564 374.4,34.877 370.325,34.877C368.062,34.877 364.81,35.165 361.065,36.523L361.065,37.017L362.342,40.31C363.738,39.776 366.085,38.951 368.638,38.951C370.078,38.951 371.272,39.405 371.272,41.216L371.272,42.492C365.593,42.822 360.16,43.192 360.16,49.529C360.16,51.753 360.942,55.539 365.345,55.539C367.776,55.539 369.749,54.591 371.52,52.988L371.684,53.028L372.177,54.59L372.589,55.002L377.197,55.002ZM336,55.002L341.844,55.002C341.844,54.633 341.803,49.94 341.762,45.619C342.586,44.631 343.491,43.725 344.315,42.779C346.003,45.907 350.116,52.615 351.434,55.002L358.266,55.002C354.975,49.694 350.652,42.945 348.308,38.992L358.266,26.808L351.394,26.808L343.696,36.646C343.203,37.304 342.421,38.498 341.885,39.567L341.762,39.567C341.844,33.765 341.844,27.304 341.844,26.808L336,26.808L336,55.002Z" style="fill:#00adbb;fill-rule:nonzero;"/>
            </g>
            <g transform="matrix(0.04,0,0,0.04,335.6,151)">
                <g>
                    <g transform="matrix(1,0,0,-1,0,0)">
                        <path d="M93,0L93,680L291,680C336,680 577,680 577,340C577,0 336,0 291,0L93,0ZM177,73L256,73C349,73 489,75 489,340C489,603 349,607 256,607L177,607L177,73Z" style="fill:#00adbb;fill-rule:nonzero;"/>
                    </g>
                    <g transform="matrix(1,0,0,-1,630,0)">
                        <path d="M255,-12C97,-12 43,131 43,235C43,372 119,476 255,476C389,476 468,372 468,235C468,131 412,-12 255,-12ZM255,47C343,47 382,141 382,235C382,320 352,410 255,410C159,410 129,320 129,235C129,141 167,47 255,47Z" style="fill:#00adbb;fill-rule:nonzero;"/>
                    </g>
                    <g transform="matrix(1,0,0,-1,1141,0)">
                        <path d="M37,65L75,111C114,72 156,49 207,49C253,49 296,75 296,127C296,181 241,193 196,209C128,232 58,258 58,341C58,429 126,476 225,476C274,476 324,466 365,434L365,422L334,373C304,400 263,412 219,412C169,412 139,387 139,348C139,301 182,295 250,270C319,245 380,217 380,137C380,42 308,-12 204,-12C141,-12 86,11 37,53L37,65Z" style="fill:#00adbb;fill-rule:nonzero;"/>
                    </g>
                    <g transform="matrix(1,0,0,-1,1567,0)">
                        <path d="M37,65L75,111C114,72 156,49 207,49C253,49 296,75 296,127C296,181 241,193 196,209C128,232 58,258 58,341C58,429 126,476 225,476C274,476 324,466 365,434L365,422L334,373C304,400 263,412 219,412C169,412 139,387 139,348C139,301 182,295 250,270C319,245 380,217 380,137C380,42 308,-12 204,-12C141,-12 86,11 37,53L37,65Z" style="fill:#00adbb;fill-rule:nonzero;"/>
                    </g>
                    <g transform="matrix(1,0,0,-1,1993,0)">
                        <path d="M412,61C368,17 313,-12 248,-12C109,-12 45,98 45,235C45,372 108,476 246,476C363,476 433,400 433,257C433,250 431,223 427,210C356,210 140,212 130,212C131,145 158,50 251,50C299,50 338,75 371,111L412,73L412,61ZM349,272C349,363 316,410 245,410C176,410 138,366 131,271C141,271 339,272 349,272Z" style="fill:#00adbb;fill-rule:nonzero;"/>
                    </g>
                    <g transform="matrix(1,0,0,-1,2434,0)">
                        <path d="M429,0L345,0C345,10 348,328 348,338C348,395 323,407 289,407C247,407 192,377 158,352L158,0L74,0L74,350C74,379 72,446 71,466L133,469L144,459L151,419L153,418C200,447 266,476 322,476C383,476 432,441 432,344C432,334 429,10 429,0Z" style="fill:#00adbb;fill-rule:nonzero;"/>
                    </g>
                    <g transform="matrix(1,0,0,-1,2941,0)">
                        <path d="M425,0L341,0C341,10 344,328 344,338C344,395 319,407 285,407C243,407 188,377 154,352L154,0L70,0L70,582C70,620 69,677 67,697L144,700L154,690L154,582C154,572 152,430 152,420C200,448 262,476 318,476C379,476 428,441 428,344C428,334 425,10 425,0Z" style="fill:#00adbb;fill-rule:nonzero;"/>
                    </g>
                    <g transform="matrix(1,0,0,-1,3444,0)">
                        <path d="M412,61C368,17 313,-12 248,-12C109,-12 45,98 45,235C45,372 108,476 246,476C363,476 433,400 433,257C433,250 431,223 427,210C356,210 140,212 130,212C131,145 158,50 251,50C299,50 338,75 371,111L412,73L412,61ZM349,272C349,363 316,410 245,410C176,410 138,366 131,271C141,271 339,272 349,272Z" style="fill:#00adbb;fill-rule:nonzero;"/>
                    </g>
                    <g transform="matrix(1,0,0,-1,3920,0)">
                        <path d="M166,0L82,0L82,351C82,379 80,446 79,466L156,469L166,459L166,0ZM166,564L82,564L82,671L92,681L166,681L166,564Z" style="fill:#00adbb;fill-rule:nonzero;"/>
                    </g>
                    <g transform="matrix(1,0,0,-1,4165,0)">
                        <path d="M668,0L584,0C584,10 587,328 587,338C587,395 561,407 530,407C491,407 444,383 413,356C413,346 412,10 412,0L331,0C331,10 332,328 332,338C332,395 307,407 279,407C240,407 189,380 158,352L158,0L74,0L74,350C74,379 72,446 71,466L133,469L144,459L151,419L153,418C197,451 256,476 308,476C346,476 382,460 400,417C455,455 512,476 564,476C621,476 671,441 671,344C671,334 668,10 668,0Z" style="fill:#00adbb;fill-rule:nonzero;"/>
                    </g>
                </g>
            </g>
        </g>
    </g>
</svg>
