<?xml version="1.0" standalone="no"?>
<!DOCTYPE svg PUBLIC "-//W3C//DTD SVG 20010904//EN"
 "http://www.w3.org/TR/2001/REC-SVG-20010904/DTD/svg10.dtd">
<svg version="1.0" xmlns="http://www.w3.org/2000/svg"
 width="700.000000pt" height="700.000000pt" viewBox="0 0 700.000000 700.000000"
 preserveAspectRatio="xMidYMid meet">
<metadata>
Created by potrace 1.14, written by Peter Selinger 2001-2017
</metadata>
<g transform="translate(0.000000,700.000000) scale(0.100000,-0.100000)"
fill="#000000" stroke="none">
<path d="M4135 6880 c-11 -4 -96 -62 -190 -129 -93 -66 -178 -126 -188 -133
-11 -7 -41 -29 -68 -48 -113 -81 -199 -142 -474 -336 -159 -112 -291 -210
-293 -217 -2 -9 92 -12 424 -12 371 1 429 -1 445 -15 18 -15 20 -28 34 -195 3
-38 8 -86 10 -105 5 -37 10 -86 21 -210 3 -41 9 -95 13 -120 8 -57 3 -90 -13
-90 -12 0 -58 18 -131 50 -52 23 -335 140 -339 140 -3 0 -33 13 -68 28 -35 16
-97 43 -138 60 -41 17 -173 72 -294 122 -139 58 -226 90 -240 86 -17 -4 -93
-147 -350 -658 -181 -359 -497 -987 -703 -1396 -255 -506 -372 -749 -368 -762
6 -17 39 -39 185 -118 30 -16 73 -40 95 -52 22 -12 63 -35 90 -50 50 -27 309
-170 395 -218 83 -46 604 -334 660 -364 142 -78 166 -91 175 -98 6 -4 44 -25
85 -47 42 -22 204 -111 360 -198 507 -281 664 -367 725 -401 33 -18 109 -60
170 -93 69 -38 113 -57 119 -51 13 13 14 23 21 170 3 69 7 152 10 185 7 117
19 319 30 540 4 66 8 145 10 176 2 31 6 114 10 185 3 71 8 161 10 199 8 126
14 237 30 530 10 191 15 275 20 345 2 41 7 131 10 200 3 69 8 145 10 170 2 25
7 110 10 190 4 80 9 148 12 152 10 17 48 6 126 -38 245 -139 421 -341 546
-625 48 -110 101 -300 117 -419 3 -19 9 -64 14 -100 8 -65 6 -367 -3 -405 -3
-11 -8 -47 -11 -80 -4 -33 -9 -67 -12 -76 -2 -10 -6 -30 -8 -45 -20 -147 -124
-497 -206 -689 -63 -150 -163 -337 -239 -445 -142 -206 -283 -346 -453 -453
-160 -101 -240 -122 -373 -98 -33 5 -76 12 -95 15 -29 5 -179 32 -280 52 -74
15 -294 71 -426 110 -306 89 -582 195 -849 325 -751 366 -1267 862 -1428 1374
-73 232 -74 407 -3 752 25 122 49 239 55 260 6 21 12 49 15 63 2 14 14 63 26
110 12 47 24 94 26 105 2 11 22 88 44 170 43 161 48 180 82 295 12 41 23 80
24 87 1 6 7 27 12 45 6 18 25 80 42 138 146 484 448 1391 519 1555 5 11 21 54
36 95 15 41 39 104 53 140 37 98 39 118 11 124 -13 3 -412 5 -887 3 -739 -2
-864 -4 -872 -16 -12 -21 -12 -4567 1 -4606 5 -16 20 -37 32 -46 55 -40 678
-452 756 -500 14 -9 118 -74 231 -146 113 -71 234 -147 270 -169 36 -21 67
-42 68 -46 2 -5 7 -8 12 -8 4 0 81 -45 171 -101 90 -55 176 -108 192 -117 16
-9 37 -22 46 -27 9 -6 84 -50 166 -99 83 -49 182 -108 220 -131 76 -46 453
-262 550 -315 60 -33 94 -52 163 -91 20 -12 88 -48 151 -81 121 -63 127 -64
246 -42 11 2 36 7 55 10 632 109 1270 445 1798 949 118 112 317 322 382 402 8
10 36 43 61 73 203 243 492 677 694 1045 51 93 228 451 245 495 7 19 17 40 21
45 7 11 119 276 162 385 70 179 157 428 162 465 2 21 -31 65 -48 65 -9 0 -456
181 -532 215 -16 8 -102 43 -190 78 -246 100 -557 227 -590 242 -16 7 -93 39
-170 70 -77 31 -153 62 -170 70 -33 15 -411 169 -575 235 -58 23 -113 50 -124
60 -21 21 -22 35 -12 225 4 77 9 167 11 200 4 93 18 356 20 395 2 19 3 60 4
91 2 104 -77 94 780 95 413 0 753 2 756 5 3 3 -32 23 -77 44 -76 35 -111 51
-253 115 -65 30 -404 184 -475 217 -30 14 -73 33 -95 43 -22 10 -74 33 -115
53 -41 19 -97 45 -125 57 -68 31 -393 180 -480 220 -162 75 -271 122 -290 125
-11 2 -29 0 -40 -5z m-463 -2284 c106 -52 203 -226 234 -421 3 -22 8 -43 10
-46 25 -41 25 -582 0 -729 -3 -14 -7 -47 -11 -75 -22 -185 -75 -424 -127 -575
-98 -284 -226 -439 -366 -440 -68 0 -264 67 -442 152 -496 236 -841 585 -1008
1019 -31 82 -31 111 0 173 128 254 405 542 670 697 91 54 264 139 281 139 7 0
17 4 23 9 21 20 244 84 374 107 109 19 314 14 362 -10z"/>
<path d="M2978 4179 c-225 -24 -426 -160 -526 -355 -51 -101 -67 -173 -66
-304 0 -110 3 -135 27 -204 91 -262 327 -440 598 -450 201 -7 378 68 517 219
191 209 222 525 76 775 -45 78 -150 183 -226 228 -71 42 -186 81 -258 88 -30
3 -59 6 -65 8 -5 1 -40 -1 -77 -5z"/>
</g>
</svg>
